<svg width="38" height="38" viewBox="0 0 38 38" fill="none" xmlns="http://www.w3.org/2000/svg">
<path d="M5.98975 4.47466L19 1.5835L32.0103 4.47466C32.3618 4.55282 32.6763 4.74852 32.9017 5.02947C33.1271 5.31042 33.2499 5.65981 33.25 6.02V21.8327C33.2499 23.3967 32.8637 24.9364 32.1257 26.3152C31.3876 27.694 30.3206 28.8693 29.0193 29.7367L19 36.4168L8.98067 29.7367C7.6796 28.8694 6.61273 27.6944 5.87472 26.3159C5.13671 24.9374 4.75037 23.398 4.75 21.8343V6.02C4.75006 5.65981 4.87293 5.31042 5.09832 5.02947C5.32371 4.74852 5.63815 4.55282 5.98975 4.47466ZM19 17.4168C20.0498 17.4168 21.0566 16.9998 21.799 16.2575C22.5413 15.5151 22.9583 14.5083 22.9583 13.4585C22.9583 12.4087 22.5413 11.4019 21.799 10.6595C21.0566 9.9172 20.0498 9.50016 19 9.50016C17.9502 9.50016 16.9434 9.9172 16.201 10.6595C15.4587 11.4019 15.0417 12.4087 15.0417 13.4585C15.0417 14.5083 15.4587 15.5151 16.201 16.2575C16.9434 16.9998 17.9502 17.4168 19 17.4168ZM11.9177 25.3335H26.0823C25.8903 23.5893 25.0615 21.9773 23.7546 20.8063C22.4477 19.6353 20.7547 18.9878 19 18.9878C17.2453 18.9878 15.5523 19.6353 14.2454 20.8063C12.9385 21.9773 12.1097 23.5893 11.9177 25.3335Z" fill="#1F4E6A"/>
</svg>
