<svg width="32" height="32" viewBox="0 0 32 32" fill="none" xmlns="http://www.w3.org/2000/svg">
<path d="M15.9998 14.4165C18.0995 14.4165 20.1131 15.2506 21.5978 16.7352C23.0824 18.2199 23.9165 20.2335 23.9165 22.3332V31.8332H8.08317V22.3332C8.08317 20.2335 8.91725 18.2199 10.4019 16.7352C11.8866 15.2506 13.9002 14.4165 15.9998 14.4165ZM5.3725 19.176C5.12053 20.0259 4.97168 20.903 4.92917 21.7885L4.9165 22.3332V31.8332H0.166504V24.7082C0.166192 23.3427 0.670049 22.0251 1.58143 21.0083C2.4928 19.9914 3.74753 19.3468 5.10492 19.1982L5.37409 19.176H5.3725ZM26.6272 19.176C28.0362 19.2619 29.3594 19.8821 30.3268 20.9101C31.2942 21.9382 31.833 23.2965 31.8332 24.7082V31.8332H27.0832V22.3332C27.0832 21.2359 26.9248 20.1767 26.6272 19.176ZM5.70817 9.6665C6.75799 9.6665 7.7648 10.0835 8.50714 10.8259C9.24947 11.5682 9.6665 12.575 9.6665 13.6248C9.6665 14.6747 9.24947 15.6815 8.50714 16.4238C7.7648 17.1661 6.75799 17.5832 5.70817 17.5832C4.65836 17.5832 3.65154 17.1661 2.90921 16.4238C2.16688 15.6815 1.74984 14.6747 1.74984 13.6248C1.74984 12.575 2.16688 11.5682 2.90921 10.8259C3.65154 10.0835 4.65836 9.6665 5.70817 9.6665ZM26.2915 9.6665C27.3413 9.6665 28.3481 10.0835 29.0905 10.8259C29.8328 11.5682 30.2498 12.575 30.2498 13.6248C30.2498 14.6747 29.8328 15.6815 29.0905 16.4238C28.3481 17.1661 27.3413 17.5832 26.2915 17.5832C25.2417 17.5832 24.2349 17.1661 23.4925 16.4238C22.7502 15.6815 22.3332 14.6747 22.3332 13.6248C22.3332 12.575 22.7502 11.5682 23.4925 10.8259C24.2349 10.0835 25.2417 9.6665 26.2915 9.6665ZM15.9998 0.166504C17.6795 0.166504 19.2905 0.833764 20.4782 2.02149C21.6659 3.20922 22.3332 4.82013 22.3332 6.49984C22.3332 8.17954 21.6659 9.79045 20.4782 10.9782C19.2905 12.1659 17.6795 12.8332 15.9998 12.8332C14.3201 12.8332 12.7092 12.1659 11.5215 10.9782C10.3338 9.79045 9.6665 8.17954 9.6665 6.49984C9.6665 4.82013 10.3338 3.20922 11.5215 2.02149C12.7092 0.833764 14.3201 0.166504 15.9998 0.166504Z" fill="#1F4E6A"/>
</svg>
